<svg width="512" height="512" viewBox="0 0 512 512" fill="none" xmlns="http://www.w3.org/2000/svg">
<circle cx="256" cy="256" r="256" fill="#FF5F57"/>
<path d="M256 42C366.099 42 456.776 125.143 468.675 232.067C466.978 232.402 465.278 232.591 463.573 232.631C463.549 232.631 463.524 232.632 463.5 232.633L294.588 237.2C287.549 223.077 272.915 213.367 256 213.367C232.224 213.367 212.949 232.548 212.949 256.209C212.949 279.87 232.224 299.051 256 299.051C272.619 299.051 287.036 289.678 294.211 275.956L464.566 271.349V271.348C466.227 271.307 467.864 271.206 469.479 271.052C464.909 336.821 430.621 394.404 379.951 430.467L347.694 377.93H347.693C337.14 360.637 320.729 350.693 304.093 345.347C287.647 340.061 269.92 338.877 254.19 339.711C242.935 340.098 231.716 338.233 221.192 334.225C210.641 330.205 201.003 324.112 192.846 316.305C184.689 308.497 178.178 299.133 173.698 288.766C169.219 278.399 166.861 267.239 166.764 255.943C166.666 244.648 168.831 233.446 173.131 222.999C177.431 212.552 183.78 203.07 191.801 195.114C199.822 187.159 209.354 180.891 219.834 176.679C230.314 172.467 241.531 170.397 252.822 170.591C263.512 170.774 272.332 162.254 272.521 151.561C272.711 140.867 264.197 132.05 253.507 131.866C237.047 131.584 220.695 134.601 205.416 140.741C190.137 146.882 176.241 156.021 164.547 167.618C152.853 179.216 143.599 193.039 137.33 208.27C131.061 223.5 127.904 239.831 128.046 256.298C128.188 272.765 131.626 289.035 138.156 304.148C144.687 319.262 154.179 332.912 166.07 344.294C177.962 355.676 192.014 364.56 207.396 370.42C222.779 376.28 239.18 378.998 255.633 378.414C255.756 378.41 255.88 378.404 256.003 378.397C268.699 377.704 281.512 378.776 292.231 382.221C302.837 385.629 310.278 390.952 314.66 398.149C314.673 398.17 314.686 398.191 314.698 398.212L346.485 449.984C319.002 462.826 288.339 470 256 470C137.811 470 42.0001 374.189 42 256C42 137.811 137.811 42.0001 256 42Z" fill="white"/>
</svg>
