<svg width="512" height="512" viewBox="0 0 512 512" fill="none" xmlns="http://www.w3.org/2000/svg">
<path d="M256.25 0C387.957 0 496.432 99.4609 510.666 227.37C508.635 227.77 506.601 227.996 504.561 228.044C504.533 228.045 504.503 228.045 504.474 228.046L302.415 233.511C293.995 216.615 276.486 205.001 256.25 205.001C227.807 205.001 204.75 227.946 204.75 256.251C204.75 284.555 227.807 307.5 256.25 307.5C276.131 307.5 293.38 296.288 301.964 279.872L505.75 274.361V274.36C507.736 274.312 509.695 274.192 511.626 274.007C506.159 352.683 465.143 421.568 404.529 464.709L365.941 401.859L365.939 401.86C353.315 381.173 333.683 369.278 313.782 362.882C294.109 356.559 272.902 355.142 254.085 356.14C240.62 356.603 227.2 354.373 214.611 349.577C201.989 344.769 190.459 337.479 180.701 328.14C170.943 318.8 163.154 307.599 157.796 295.197C152.437 282.796 149.616 269.444 149.5 255.932C149.383 242.419 151.973 229.019 157.117 216.521C162.261 204.024 169.855 192.682 179.451 183.165C189.046 173.648 200.449 166.15 212.986 161.111C225.523 156.073 238.942 153.596 252.449 153.828C265.237 154.047 275.787 143.855 276.013 131.062C276.239 118.271 266.055 107.723 253.267 107.503C233.577 107.165 214.015 110.775 195.738 118.121C177.461 125.467 160.836 136.399 146.847 150.272C132.859 164.146 121.788 180.682 114.289 198.901C106.79 217.121 103.014 236.657 103.183 256.355C103.353 276.055 107.466 295.519 115.278 313.599C123.09 331.678 134.445 348.007 148.671 361.623C162.896 375.239 179.706 385.866 198.107 392.876C216.508 399.886 236.129 403.138 255.81 402.439C255.958 402.434 256.106 402.427 256.253 402.419C271.441 401.589 286.769 402.872 299.593 406.993C312.28 411.071 321.18 417.438 326.423 426.048C326.438 426.073 326.453 426.097 326.469 426.122L364.494 488.056C331.616 503.418 294.935 512 256.25 512C114.865 512 0.249822 397.385 0.249756 256C0.249756 114.615 114.865 0.000115482 256.25 0Z" fill="white"/>
</svg>
